<svg xmlns="http://www.w3.org/2000/svg" viewBox="0 0 900 320" role="img" aria-labelledby="title desc">
  <title id="title">URF365 logo</title>
  <desc id="desc">URF365 chrome and red badge with blue light streaks and car silhouette.</desc>
  <defs>
    <linearGradient id="badge" x1="0" x2="0" y1="0" y2="1">
      <stop offset="0" stop-color="#2c343f"/>
      <stop offset=".42" stop-color="#0D1117"/>
      <stop offset="1" stop-color="#05070b"/>
    </linearGradient>
    <linearGradient id="chrome" x1="0" x2="0" y1="0" y2="1">
      <stop offset="0" stop-color="#ffffff"/>
      <stop offset=".35" stop-color="#eef1f5"/>
      <stop offset=".62" stop-color="#b8c0cb"/>
      <stop offset="1" stop-color="#697382"/>
    </linearGradient>
    <linearGradient id="red" x1="0" x2="0" y1="0" y2="1">
      <stop offset="0" stop-color="#f06468"/>
      <stop offset=".5" stop-color="#CC2229"/>
      <stop offset="1" stop-color="#7F1016"/>
    </linearGradient>
    <linearGradient id="blue" x1="0" x2="1" y1="0" y2="0">
      <stop offset="0" stop-color="#1E90FF" stop-opacity="0"/>
      <stop offset=".48" stop-color="#61C7FF"/>
      <stop offset="1" stop-color="#1E90FF" stop-opacity="0"/>
    </linearGradient>
    <filter id="shadow" x="-15%" y="-20%" width="130%" height="150%">
      <feDropShadow dx="0" dy="14" stdDeviation="14" flood-color="#000" flood-opacity=".45"/>
    </filter>
  </defs>
  <path d="M114 84c29-25 78-41 145-47h287c64 0 119 27 160 72l34 38h86l-41 104H152L76 283l54-42H42L85 105c4-9 14-17 29-21Z" fill="#5d6672" opacity=".5"/>
  <path d="M116 74c31-25 81-39 149-43h279c70 0 126 27 168 82l25 33h105l-39 113H154L56 301l56-48H28L73 101c5-12 19-22 43-27Z" fill="url(#badge)" stroke="#8390a0" stroke-width="8" filter="url(#shadow)"/>
  <path d="M126 68c64-58 234-70 382-40 81 16 145 55 195 116H349c-87 0-169-20-223-76Z" fill="#0b1423" stroke="#768392" stroke-width="7"/>
  <path d="M151 75c112-26 291-31 426 20 37 14 66 31 87 49H230c-34-12-61-35-79-69Z" fill="none" stroke="url(#chrome)" stroke-width="9" stroke-linecap="round"/>
  <path d="M224 95c90-22 235-23 350 18" fill="none" stroke="url(#blue)" stroke-width="13" stroke-linecap="round" opacity=".95"/>
  <path d="M276 75c77-9 180-5 282 34" fill="none" stroke="#dff5ff" stroke-width="4" stroke-linecap="round" opacity=".75"/>
  <path d="M342 58c42 13 81 31 117 55" fill="none" stroke="#1E90FF" stroke-width="5" stroke-linecap="round" opacity=".9"/>
  <g font-family="Arial Black, Impact, sans-serif" font-style="italic" font-weight="900" letter-spacing="-18">
    <text x="116" y="220" font-size="142" fill="#05070b" opacity=".7">URF</text>
    <text x="108" y="209" font-size="142" fill="url(#chrome)" stroke="#f8fbff" stroke-width="2">URF</text>
    <text x="482" y="220" font-size="142" fill="#05070b" opacity=".7">365</text>
    <text x="474" y="209" font-size="142" fill="url(#red)" stroke="#f15c61" stroke-width="2">365</text>
  </g>
  <path d="M88 248h696" stroke="#aab3bf" stroke-width="4" opacity=".55"/>
</svg>
